# xmcd CD Database Entry
#
# Track frame offsets:
# 150
# 18147
# 19555
# 38695
# 42612
# 58692
# 79522
# 97822
# 120082
# 140935
# 159057
# 176884
# 196180
# 219500
# 223370
# 240797
# 261197
#
# Disc length: 3756 seconds
#
# Revision: 1
# Processed by: cddbd v1.4PL0 Copyright (c) Steve Scherf et al.
# Submitted via: tcd 2.0b
#
DISCID=d90eaa11
DTITLE=TLC - Fanmail
DYEAR=1999
DGENRE=Blues
TTITLE0=Fanmail
TTITLE1=The Vic-e Interpretation - Interlude
TTITLE2=Silly Ho
TTITLE3=Whispering Playa - Interlude
TTITLE4=No Scrubs
TTITLE5=I'm Good at Being Bad
TTITLE6=If They Knew
TTITLE7=I Miss You So Much
TTITLE8=Unpretty
TTITLE9=My Life
TTITLE10=Shout
TTITLE11=Come on Down
TTITLE12=Dear Lie
TTITLE13=Communicate
TTITLE14=Lovesick
TTITLE15=Automatic
TTITLE16=Don't Pull Out on Me Yet
EXTD=
EXTT0=
EXTT1=
EXTT2=
EXTT3=
EXTT4=
EXTT5=
EXTT6=
EXTT7=
EXTT8=
EXTT9=
EXTT10=
EXTT11=
EXTT12=
EXTT13=
EXTT14=
EXTT15=
EXTT16=
PLAYORDER=
